<svg width="101" height="82" viewBox="0 0 101 82" fill="none" xmlns="http://www.w3.org/2000/svg">
<path d="M14.708 25.9541C13.9674 26.1136 13.2839 26.256 12.6572 26.3813C12.3838 26.4383 12.1104 26.4896 11.8369 26.5352C11.5749 26.5807 11.3242 26.6263 11.085 26.6719C10.8457 26.7061 10.6292 26.7345 10.4355 26.7573C10.2533 26.7801 10.1165 26.7915 10.0254 26.7915C9.83171 26.7915 9.6665 26.7573 9.52979 26.689C9.40446 26.6092 9.3418 26.4554 9.3418 26.2275V24.3135C9.3418 24.097 9.43294 23.9033 9.61523 23.7324C9.79753 23.5501 10.0824 23.459 10.4697 23.459H31.6782C32.0656 23.459 32.3504 23.5501 32.5327 23.7324C32.715 23.9033 32.8062 24.097 32.8062 24.3135V26.2275C32.8062 26.4554 32.7378 26.6092 32.6011 26.689C32.4757 26.7573 32.3162 26.7915 32.1226 26.7915C32.02 26.7915 31.8776 26.7801 31.6953 26.7573C31.513 26.7345 31.3022 26.7061 31.063 26.6719C30.8237 26.6263 30.5674 26.5807 30.2939 26.5352C30.0319 26.4896 29.7642 26.4383 29.4907 26.3813C28.8641 26.256 28.1805 26.1136 27.4399 25.9541V45.6587C27.4399 46.0461 27.4058 46.3879 27.3374 46.6841C27.269 46.9689 27.138 47.2139 26.9443 47.4189C26.762 47.6126 26.5057 47.7607 26.1753 47.8633C25.8449 47.9544 25.4233 48 24.9106 48H17.2886C16.7531 48 16.3145 47.9487 15.9727 47.8462C15.6423 47.7437 15.3802 47.5955 15.1865 47.4019C15.0042 47.2082 14.8789 46.9632 14.8105 46.667C14.7422 46.3708 14.708 46.0233 14.708 45.6245V25.9541ZM42.3936 48.5981C41.5391 48.5981 40.6846 48.5298 39.8301 48.3931C38.9756 48.2563 38.1553 48.0399 37.3691 47.7437C36.5944 47.4474 35.8709 47.0601 35.1987 46.5815C34.5265 46.103 33.9398 45.5163 33.4385 44.8213C32.9486 44.1263 32.5612 43.3231 32.2764 42.4116C31.9915 41.4888 31.8491 40.4349 31.8491 39.25C31.8491 38.0879 31.9915 37.0511 32.2764 36.1396C32.5612 35.2168 32.9486 34.4079 33.4385 33.7129C33.9398 33.0179 34.5265 32.4312 35.1987 31.9526C35.8709 31.4627 36.5944 31.0697 37.3691 30.7734C38.1553 30.4658 38.9756 30.2437 39.8301 30.1069C40.6846 29.9702 41.5391 29.9019 42.3936 29.9019C43.1797 29.9019 43.9829 29.9531 44.8032 30.0557C45.6349 30.1468 46.4382 30.3234 47.2129 30.5854C47.999 30.8361 48.7339 31.1836 49.4175 31.6279C50.1125 32.0609 50.7163 32.6191 51.229 33.3027C51.7531 33.9863 52.1632 34.8066 52.4595 35.7637C52.7671 36.7093 52.9209 37.8258 52.9209 39.1133C52.9209 40.4349 52.7728 41.5913 52.4766 42.5825C52.1803 43.5623 51.7702 44.4054 51.2461 45.1118C50.7334 45.8068 50.1353 46.3822 49.4517 46.8379C48.7681 47.2936 48.0332 47.6525 47.2471 47.9146C46.4723 48.1652 45.6691 48.3418 44.8374 48.4443C44.0057 48.5469 43.1911 48.5981 42.3936 48.5981ZM47.6401 44.4966C47.9933 44.4966 48.3408 44.4225 48.6826 44.2744C49.0358 44.1149 49.3434 43.8358 49.6055 43.437C49.8789 43.0382 50.0954 42.4914 50.2549 41.7964C50.4258 41.09 50.5112 40.1956 50.5112 39.1133C50.5112 38.0879 50.4258 37.2448 50.2549 36.584C50.0954 35.9232 49.8789 35.4048 49.6055 35.0288C49.332 34.6414 49.0244 34.3737 48.6826 34.2256C48.3408 34.0775 47.9933 34.0034 47.6401 34.0034C47.3667 34.0034 47.0591 34.0604 46.7173 34.1743C46.3869 34.2882 46.0736 34.5332 45.7773 34.9092C45.4925 35.2738 45.2533 35.8035 45.0596 36.4985C44.8659 37.1821 44.769 38.0993 44.769 39.25C44.769 40.4007 44.8488 41.3236 45.0083 42.0186C45.1678 42.7135 45.3786 43.2433 45.6406 43.6079C45.9027 43.9725 46.2046 44.2118 46.5464 44.3257C46.8996 44.4396 47.2642 44.4966 47.6401 44.4966ZM89.1172 48.5981C88.2627 48.5981 87.4082 48.5298 86.5537 48.3931C85.6992 48.2563 84.8789 48.0399 84.0928 47.7437C83.318 47.4474 82.5946 47.0601 81.9224 46.5815C81.2502 46.103 80.6634 45.5163 80.1621 44.8213C79.6722 44.1263 79.2848 43.3231 79 42.4116C78.7152 41.4888 78.5728 40.4349 78.5728 39.25C78.5728 38.0879 78.7152 37.0511 79 36.1396C79.2848 35.2168 79.6722 34.4079 80.1621 33.7129C80.6634 33.0179 81.2502 32.4312 81.9224 31.9526C82.5946 31.4627 83.318 31.0697 84.0928 30.7734C84.8789 30.4658 85.6992 30.2437 86.5537 30.1069C87.4082 29.9702 88.2627 29.9019 89.1172 29.9019C89.9033 29.9019 90.7065 29.9531 91.5269 30.0557C92.3586 30.1468 93.1618 30.3234 93.9365 30.5854C94.7227 30.8361 95.4575 31.1836 96.1411 31.6279C96.8361 32.0609 97.4399 32.6191 97.9526 33.3027C98.4767 33.9863 98.8869 34.8066 99.1831 35.7637C99.4907 36.7093 99.6445 37.8258 99.6445 39.1133C99.6445 40.4349 99.4964 41.5913 99.2002 42.5825C98.904 43.5623 98.4938 44.4054 97.9697 45.1118C97.457 45.8068 96.8589 46.3822 96.1753 46.8379C95.4917 47.2936 94.7568 47.6525 93.9707 47.9146C93.196 48.1652 92.3927 48.3418 91.561 48.4443C90.7293 48.5469 89.9147 48.5981 89.1172 48.5981ZM94.3638 44.4966C94.717 44.4966 95.0645 44.4225 95.4062 44.2744C95.7594 44.1149 96.0671 43.8358 96.3291 43.437C96.6025 43.0382 96.819 42.4914 96.9785 41.7964C97.1494 41.09 97.2349 40.1956 97.2349 39.1133C97.2349 38.0879 97.1494 37.2448 96.9785 36.584C96.819 35.9232 96.6025 35.4048 96.3291 35.0288C96.0557 34.6414 95.748 34.3737 95.4062 34.2256C95.0645 34.0775 94.717 34.0034 94.3638 34.0034C94.0903 34.0034 93.7827 34.0604 93.4409 34.1743C93.1105 34.2882 92.7972 34.5332 92.501 34.9092C92.2161 35.2738 91.9769 35.8035 91.7832 36.4985C91.5895 37.1821 91.4927 38.0993 91.4927 39.25C91.4927 40.4007 91.5724 41.3236 91.7319 42.0186C91.8914 42.7135 92.1022 43.2433 92.3643 43.6079C92.6263 43.9725 92.9282 44.2118 93.27 44.3257C93.6232 44.4396 93.9878 44.4966 94.3638 44.4966Z" fill="#666666"/>
<path d="M55.416 25.8516C55.416 25.4528 55.4502 25.1053 55.5186 24.8091C55.5869 24.5129 55.7179 24.2679 55.9116 24.0742C56.1053 23.8691 56.373 23.7153 56.7148 23.6128C57.0566 23.5103 57.501 23.459 58.0479 23.459H66.2681C67.1226 23.459 67.9714 23.5216 68.8145 23.647C69.6576 23.7609 70.4608 23.9717 71.2241 24.2793C71.9875 24.5869 72.6938 25.0142 73.3433 25.561C74.0041 26.0965 74.5737 26.7915 75.0522 27.646C75.5308 28.5005 75.9067 29.5259 76.1802 30.7222C76.4536 31.9185 76.5903 33.3255 76.5903 34.9434C76.5903 36.846 76.4422 38.4924 76.146 39.8823C75.8612 41.2609 75.4681 42.4344 74.9668 43.4028C74.4769 44.3713 73.8901 45.1574 73.2065 45.7612C72.5343 46.3537 71.8052 46.8208 71.019 47.1626C70.2443 47.493 69.4354 47.7152 68.5923 47.8291C67.7606 47.943 66.9289 48 66.0972 48H58.0479C57.501 48 57.0566 47.9487 56.7148 47.8462C56.373 47.7437 56.1053 47.5955 55.9116 47.4019C55.7179 47.2082 55.5869 46.9632 55.5186 46.667C55.4502 46.3708 55.416 46.0233 55.416 45.6245V25.8516ZM74.1807 35.3022C74.1807 33.8895 74.0667 32.6021 73.8389 31.4399C73.611 30.2778 73.2521 29.2866 72.7622 28.4663C72.2723 27.646 71.6457 27.008 70.8823 26.5522C70.1304 26.0965 69.2246 25.863 68.165 25.8516V45.6245C69.2246 45.6131 70.1361 45.3397 70.8994 44.8042C71.6628 44.2573 72.2837 43.5168 72.7622 42.5825C73.2521 41.6483 73.611 40.5602 73.8389 39.3184C74.0667 38.0651 74.1807 36.7264 74.1807 35.3022Z" fill="#0000FF"/>
</svg>
